<?xml version="1.0" standalone="no"?>
<!DOCTYPE svg PUBLIC "-//W3C//DTD SVG 20010904//EN"
 "http://www.w3.org/TR/2001/REC-SVG-20010904/DTD/svg10.dtd">
<svg version="1.0" xmlns="http://www.w3.org/2000/svg"
 width="512.000000pt" height="512.000000pt" viewBox="0 0 512.000000 512.000000"
 preserveAspectRatio="xMidYMid meet">
<metadata>
Created by potrace 1.14, written by Peter Selinger 2001-2017
</metadata>
<g transform="translate(0.000000,512.000000) scale(0.100000,-0.100000)"
fill="#000000" stroke="none">
<path d="M1810 5105 c-291 -36 -579 -138 -830 -294 -387 -241 -704 -639 -856
-1075 -88 -252 -119 -440 -118 -721 0 -372 63 -653 221 -973 124 -251 274
-454 507 -687 463 -462 1097 -839 2143 -1274 l188 -78 3 458 2 459 55 0 c81 0
235 18 350 41 309 62 644 225 891 432 396 332 661 813 735 1337 20 138 18 467
-4 605 -149 956 -890 1674 -1829 1775 -146 15 -1325 11 -1458 -5z m44 -1817
c33 -294 216 -524 491 -615 71 -24 96 -27 215 -27 120 0 144 3 215 27 111 37
198 90 281 172 118 118 184 251 206 422 l12 83 233 0 233 0 0 -54 c0 -73 -24
-207 -56 -308 -100 -316 -342 -586 -644 -719 -151 -67 -261 -91 -445 -96 -137
-4 -175 -2 -264 17 -340 70 -614 265 -794 565 -79 133 -143 342 -154 503 l-6
92 235 0 235 0 7 -62z"/>
</g>
</svg>
